# xmcd
#
# Track frame offsets: 
#        150
#        20435
#        42995
#        66857
#        91400
#        112382
#        132832
#        153515
#        173197
#        197892
#        222335
#
# Disc length: 3317 seconds
#
# Revision: 0
# Processed by: cddbd v1.5.2PL0 Copyright (c) Steve Scherf et al.
# Submitted via: ExactAudioCopy v1.1
#
DISCID=a20cf30b
DTITLE=R.J.'s Latest Arrival - Harmony
DYEAR=1984
DGENRE=Soul
TTITLE0=Harmony
TTITLE1=Hot Roll
TTITLE2=Let Me Love You
TTITLE3=That's The Sound
TTITLE4=Shackles
TTITLE5=Get It Up
TTITLE6=Feel Desire
TTITLE7=Cry Like A Wolf
TTITLE8=Shackles (Club Mix)
TTITLE9=Harmony (Club Mix)
TTITLE10=Cry Like A Wolf (Club Mix)
EXTD=
EXTT0=
EXTT1=
EXTT2=
EXTT3=
EXTT4=
EXTT5=
EXTT6=
EXTT7=
EXTT8=
EXTT9=
EXTT10=
PLAYORDER=
